<?xml version="1.0" standalone="no"?>
<!DOCTYPE svg PUBLIC "-//W3C//DTD SVG 20010904//EN"
 "http://www.w3.org/TR/2001/REC-SVG-20010904/DTD/svg10.dtd">
<svg version="1.0" xmlns="http://www.w3.org/2000/svg"
 width="1080.000000pt" height="450.000000pt" viewBox="0 0 1080.000000 450.000000"
 preserveAspectRatio="xMidYMid meet">

<g transform="translate(0.000000,450.000000) scale(0.100000,-0.100000)"
fill="#000000" stroke="none">
<path d="M2516 4033 c-4 -5 -11 -8 -14 -9 -18 -2 -46 -19 -67 -39 -21 -21 -30
-38 -43 -75 -3 -8 -7 -489 -9 -1067 l-4 -1053 1538 0 c1634 1 1582 -1 1635 47
12 10 29 37 40 60 17 40 18 86 18 1017 0 664 -4 977 -11 982 -6 3 -8 12 -5 19
3 8 -2 19 -9 25 -8 7 -13 15 -12 19 2 3 -7 16 -20 28 -13 12 -23 20 -23 16 0
-3 -7 1 -16 8 -9 7 -23 15 -33 18 -26 9 -2957 12 -2965 4z m2047 -580 c-309
-2 -817 -2 -1130 0 -312 1 -59 2 562 2 622 0 877 -1 568 -2z m0 -760 c-309 -2
-817 -2 -1130 0 -312 1 -59 2 562 2 622 0 877 -1 568 -2z m0 -190 c-309 -2
-817 -2 -1130 0 -312 1 -59 2 562 2 622 0 877 -1 568 -2z"/>
<path d="M6963 3380 c-25 -10 -43 -39 -43 -70 0 -19 -5 -21 -42 -18 -34 2 -43
-1 -46 -15 -3 -15 6 -17 73 -17 68 0 76 -2 71 -17 -3 -10 -8 -35 -12 -55 -4
-23 -12 -38 -21 -38 -11 0 -13 -11 -11 -42 3 -40 5 -43 36 -46 l32 -3 0 70 c0
77 16 96 26 31 6 -39 7 -40 49 -40 54 0 67 16 64 79 -2 28 0 54 4 57 21 21 -3
110 -32 118 -38 11 -128 15 -148 6z"/>
<path d="M905 2807 c-82 -221 -155 -417 -162 -434 l-13 -33 99 0 99 0 15 43
c42 119 252 681 277 744 17 39 30 74 30 77 0 3 -44 6 -97 6 l-98 0 -150 -403z"/>
<path d="M1261 3179 c-6 -18 -11 -34 -11 -35 0 -2 28 -4 63 -4 53 0 67 -4 85
-23 12 -13 22 -31 22 -40 0 -9 12 -22 28 -29 l27 -13 0 -180 0 -180 -27 -13
c-16 -7 -28 -21 -28 -31 0 -10 -10 -27 -23 -39 -22 -21 -32 -22 -194 -22
l-170 0 -39 -107 c-22 -59 -40 -111 -42 -115 -2 -4 249 -8 557 -8 l561 0 0
401 0 401 -34 34 -34 34 -365 0 -365 0 -11 -31z"/>
<path d="M1233 3103 c-2 -10 -46 -128 -97 -263 l-93 -245 160 -3 c138 -2 162
0 178 14 26 24 24 52 -3 56 -23 3 -23 5 -26 190 -2 175 -1 188 16 197 11 6 22
7 26 4 3 -3 6 3 6 15 0 38 -26 52 -97 52 -53 0 -66 -3 -70 -17z"/>
<path d="M7209 2992 c31 -31 66 -114 76 -185 l7 -47 -90 0 -89 0 -7 48 c-8 59
-58 167 -85 181 -29 16 -56 13 -82 -9 -24 -19 -24 -19 -2 -20 12 0 31 -12 42
-26 18 -22 21 -41 21 -115 0 -48 -7 -135 -15 -191 -9 -57 -20 -137 -26 -178
-6 -41 -15 -83 -20 -92 -16 -30 -64 -47 -166 -59 -150 -16 -143 -14 -143 -58
0 -21 6 -59 14 -84 8 -26 10 -49 5 -52 -5 -3 -8 -34 -7 -68 1 -34 -13 -176
-31 -316 l-33 -254 16 -316 c25 -496 25 -491 50 -491 32 0 -42 -47 -87 -55
-22 -4 -37 -13 -37 -21 0 -11 23 -14 110 -14 l110 0 0 45 c0 41 2 45 24 45 29
0 26 -8 61 214 21 137 30 236 48 525 3 40 16 78 57 157 30 58 59 109 65 114 9
7 16 -17 29 -93 9 -56 28 -125 40 -154 18 -37 286 -439 442 -661 1 -2 12 2 25
8 21 12 22 11 16 -30 -3 -23 -13 -50 -23 -61 -13 -14 -15 -22 -7 -30 16 -16
59 17 119 87 l48 55 -29 23 c-25 20 -27 24 -12 32 15 9 10 27 -52 170 -76 177
-134 297 -192 394 -63 108 -68 142 -82 645 -1 33 3 77 10 98 30 93 42 411 23
597 -13 124 -55 214 -115 247 -53 30 -59 29 -26 -5z"/>
<path d="M1747 2212 c-21 -23 -21 -36 -1 -56 12 -13 38 -16 118 -16 105 0 126
7 126 41 0 39 -27 49 -129 49 -82 0 -101 -3 -114 -18z"/>
<path d="M9206 1924 c-18 -17 -19 -24 -8 -42 6 -9 38 -12 123 -10 103 3 114 5
117 22 7 34 -25 46 -124 46 -71 0 -96 -4 -108 -16z"/>
<path d="M9715 1930 c-4 -6 4 -10 20 -10 34 0 30 -31 -5 -41 -15 -4 11 -7 63
-8 72 -1 89 2 94 15 13 35 -10 49 -90 52 -44 2 -78 -1 -82 -8z"/>
<path d="M9534 1895 c-4 -9 11 -55 34 -106 23 -49 40 -89 39 -89 -1 0 -169
-33 -372 -74 l-370 -73 -55 -57 -56 -58 -53 36 c-153 103 -376 102 -537 -2
-261 -169 -300 -540 -80 -757 201 -199 514 -194 706 12 33 35 72 90 87 123
l28 60 75 -2 c97 -4 104 15 9 24 -40 4 -73 9 -74 10 -1 2 0 20 2 40 5 34 8 37
40 40 33 3 36 5 38 41 2 37 1 37 -35 37 -37 0 -38 1 -42 40 -2 27 1 41 10 45
26 10 102 5 102 -6 0 -7 10 -5 25 5 35 23 122 21 162 -4 46 -28 67 -65 67
-120 0 -79 -44 -126 -130 -138 -60 -9 -72 -32 -17 -32 123 0 212 136 158 241
-9 16 -12 35 -8 42 7 12 325 400 349 426 10 11 18 3 43 -47 l31 -61 -34 -20
c-51 -32 -131 -122 -161 -182 -39 -76 -55 -142 -55 -230 0 -132 44 -239 139
-341 269 -288 765 -130 831 264 58 342 -266 641 -600 554 -30 -8 -58 -12 -61
-8 -4 4 -41 84 -84 177 -42 94 -80 177 -85 185 -10 22 -59 25 -66 5z m9 -298
c-10 -12 -65 -80 -123 -150 l-104 -127 -51 0 c-28 0 -56 -5 -63 -12 -18 -18 4
-48 35 -48 25 0 26 -1 8 -20 -14 -16 -28 -19 -87 -16 l-70 4 -69 130 c-38 72
-66 133 -61 136 4 2 107 25 227 50 121 25 252 51 290 59 39 8 74 15 78 16 5 1
0 -9 -10 -22z m-1010 -122 c59 -15 116 -41 152 -69 19 -14 16 -19 -90 -125
-99 -101 -113 -111 -155 -117 -25 -4 -53 -11 -62 -16 -22 -11 -48 -59 -48 -88
0 -34 27 -76 57 -88 15 -6 120 -21 232 -32 113 -11 207 -23 210 -26 13 -12
-56 -118 -105 -163 -139 -127 -321 -153 -486 -70 -160 81 -256 267 -229 440
41 253 283 417 524 354z m1522 -1 c163 -42 288 -182 316 -353 27 -171 -71
-360 -228 -440 -219 -110 -471 -24 -580 197 -37 73 -38 80 -38 182 0 102 1
109 38 182 26 55 54 92 98 132 33 31 64 56 68 56 5 0 47 -87 95 -192 48 -106
94 -198 103 -205 11 -9 21 -9 34 -2 32 17 37 0 -100 294 -33 71 -57 133 -53
137 27 27 164 34 247 12z m-1106 -147 l58 -105 -30 -6 c-62 -12 -75 -8 -87 29
-7 20 -27 59 -46 87 l-35 51 33 34 c19 19 36 29 41 24 5 -5 35 -56 66 -114z
m-149 -49 c16 -29 30 -58 30 -64 0 -9 -207 -40 -216 -32 -6 6 130 146 143 147
7 0 26 -23 43 -51z m43 -105 c3 -5 8 -23 12 -40 l7 -33 -172 0 -172 0 33 28
c29 24 44 28 153 38 67 6 124 12 128 13 4 0 9 -2 11 -6z m-343 -60 c14 -18 20
-37 18 -55 -3 -18 1 -29 11 -33 8 -3 85 -5 170 -5 l156 2 -2 -28 c-3 -43 -11
-56 -30 -50 -10 3 -81 10 -158 16 -272 20 -305 32 -305 106 0 68 98 101 140
47z"/>
<path d="M419 1827 c-99 -66 -60 -208 61 -224 l40 -6 0 127 0 126 -34 0 c-18
0 -48 -10 -67 -23z m49 -26 c21 -13 10 -46 -16 -49 -27 -4 -40 22 -22 43 14
17 20 18 38 6z"/>
<path d="M8686 1734 c-19 -19 -20 -25 -2 -49 12 -16 22 -17 97 -11 214 17 249
26 236 60 -9 24 -308 24 -331 0z"/>
<path d="M1235 1651 c-81 -21 -127 -65 -204 -193 -86 -145 -101 -184 -108
-292 l-6 -96 61 0 60 0 7 -62 c39 -340 396 -539 696 -389 153 76 251 216 267
381 l7 65 58 3 57 3 0 83 c0 109 -15 154 -95 288 -77 129 -104 161 -160 191
-38 21 -54 22 -325 24 -157 1 -298 -2 -315 -6z m411 -330 c58 -26 111 -77 142
-135 22 -43 27 -64 27 -131 0 -67 -5 -88 -27 -131 -52 -99 -148 -158 -258
-158 -110 0 -199 53 -258 154 -24 40 -27 55 -27 135 0 100 10 127 72 196 83
92 215 120 329 70z"/>
<path d="M1492 1104 c-46 -32 -17 -114 40 -114 26 0 58 36 58 65 0 29 -32 65
-58 65 -10 0 -28 -7 -40 -16z"/>
<path d="M2380 1365 l0 -295 54 0 55 0 3 185 3 185 28 27 c25 26 33 28 110 28
l82 0 3 -27 c3 -26 6 -28 53 -28 48 0 49 1 49 30 l0 31 158 -3 157 -3 3 -27
c3 -26 6 -28 52 -28 46 0 49 2 52 28 l3 27 83 0 c79 0 85 -1 108 -28 23 -27
24 -33 25 -205 1 -97 1 -180 0 -184 0 -5 62 -8 139 -8 l140 0 0 -30 c0 -107
59 -241 144 -326 185 -185 473 -194 662 -21 99 90 148 183 162 305 l7 67 225
2 c124 2 231 -1 237 -5 7 -5 14 -26 15 -49 1 -40 1 -40 32 -31 l31 10 -3 173
c-3 157 -5 174 -22 190 -17 16 -20 32 -20 117 0 86 3 100 20 115 11 10 20 27
20 39 0 18 -7 22 -52 28 -29 3 -675 6 -1435 6 l-1383 0 0 -295z m1977 -51
c199 -95 215 -385 26 -504 -69 -44 -141 -56 -221 -36 -139 34 -222 140 -222
281 1 218 219 353 417 259z"/>
<path d="M4190 1102 c-43 -35 -15 -112 39 -112 24 0 61 41 61 67 0 22 -43 63
-65 63 -7 0 -23 -8 -35 -18z"/>
<path d="M2720 1140 l0 -135 50 0 50 0 0 135 0 135 -50 0 -50 0 0 -135z"/>
<path d="M3140 1140 l0 -135 50 0 50 0 0 135 0 135 -50 0 -50 0 0 -135z"/>
<path d="M8934 845 c-15 -37 2 -46 83 -43 76 3 78 4 78 28 0 24 -2 25 -78 28
-62 2 -78 0 -83 -13z"/>
</g>
</svg>
